<?xml version="1.0" encoding="utf-8"?>
<!-- Generator: Adobe Illustrator 16.0.0, SVG Export Plug-In . SVG Version: 6.00 Build 0)  -->
<!DOCTYPE svg PUBLIC "-//W3C//DTD SVG 1.1//EN" "http://www.w3.org/Graphics/SVG/1.1/DTD/svg11.dtd">
<svg version="1.1" id="Layer_1" xmlns="http://www.w3.org/2000/svg" xmlns:xlink="http://www.w3.org/1999/xlink" x="0px" y="0px"
	 width="400px" height="400px" viewBox="0 0 400 400" enable-background="new 0 0 400 400" xml:space="preserve">
<title>Circle</title>
<desc>Created with Sketch.</desc>
<path id="field" fill="#2A2A2A" d="M200,0L200,0c110.457,0,200,89.543,200,200l0,0c0,110.457-89.543,200-200,200l0,0
	C89.543,400,0,310.457,0,200l0,0C0,89.543,89.543,0,200,0z"/>
<path id="logo" fill="#FFFFFF" d="M326.357,106c9.447,0,13.351,8.383,7.662,16.449L212.527,294.828
	c-5.387,7.641-14.437,7.146-19.062-1.041l-21.604-38.213L142.6,295.465c-5.539,7.551-14.543,6.775-18.883-1.636L71.713,193.106
	c-4.427-8.584,0.101-16.794,9.268-16.794h42.798c7.426,0,16.113,5.243,19.96,12.039l29.023,51.333l90.143-122.89
	c4.475-6.094,13.5-10.794,20.748-10.794H326.357z M327.264,117.001c0.479-0.678,0.77-1.259,0.891-1.695
	c-0.399-0.152-1.004-0.256-1.797-0.256h-42.705c-4.647,0-11.223,3.421-14.09,7.329l-92.119,125.583l23.262,41.146
	c1.532,2.709,3.28,2.803,5.062,0.271L327.264,117.001z M135.941,289.876l31.237-42.581l-30.677-54.261
	c-2.314-4.088-8.26-7.674-12.722-7.674H80.981c-2.724,0-3.176,0.823-1.855,3.375l52,100.719
	C132.533,292.188,134.145,292.328,135.941,289.876z"/>
</svg>
