<?xml version="1.0" encoding="utf-8"?>
<!-- Generator: Adobe Illustrator 16.0.0, SVG Export Plug-In . SVG Version: 6.00 Build 0)  -->
<!DOCTYPE svg PUBLIC "-//W3C//DTD SVG 1.1//EN" "http://www.w3.org/Graphics/SVG/1.1/DTD/svg11.dtd">
<svg version="1.1" id="Layer_1" xmlns="http://www.w3.org/2000/svg" xmlns:xlink="http://www.w3.org/1999/xlink" x="0px" y="0px"
	 width="1200px" height="876px" viewBox="0 0 1200 876" enable-background="new 0 0 1200 876" xml:space="preserve">
<title>Logo-White</title>
<desc>Created with Sketch.</desc>
<g id="Page-1">
	<g id="Shortlist-Brand-Resources" transform="translate(-121.000000, -2274.000000)">
		<path id="Logo-White" fill="#FFFFFF" d="M1274.606,2274c42.519,0,60.079,37.726,34.48,74.02l-546.717,775.71
			c-24.237,34.38-64.958,32.153-85.771-4.685l-97.219-171.96l-131.683,179.508c-24.926,33.976-65.443,30.489-84.974-7.361
			L128.71,2665.979c-19.922-38.629,0.454-75.576,41.705-75.576h192.591c33.417,0,72.511,23.594,89.821,54.176l130.604,230.992
			l405.635-552.998c20.142-27.423,60.752-48.573,93.371-48.573H1274.606z M1278.688,2323.507c2.158-3.05,3.456-5.665,4.004-7.626
			c-1.799-0.685-4.52-1.151-8.085-1.151h-192.169c-20.923,0-50.509,15.392-63.409,32.979L604.495,2912.83l104.677,185.157
			c6.896,12.187,14.762,12.606,22.784,1.214L1278.688,2323.507z M417.737,3101.442l140.565-191.616l-138.047-244.174
			c-10.415-18.396-37.17-34.535-57.249-34.535H170.415c-12.26,0-14.292,3.704-8.351,15.19l233.999,453.237
			C402.396,3111.839,409.652,3112.477,417.737,3101.442z"/>
	</g>
</g>
</svg>
