<?xml version="1.0" encoding="utf-8"?>
<!-- Generator: Adobe Illustrator 16.0.0, SVG Export Plug-In . SVG Version: 6.00 Build 0)  -->
<!DOCTYPE svg PUBLIC "-//W3C//DTD SVG 1.1//EN" "http://www.w3.org/Graphics/SVG/1.1/DTD/svg11.dtd">
<svg version="1.1" id="Layer_1" xmlns="http://www.w3.org/2000/svg" xmlns:xlink="http://www.w3.org/1999/xlink" x="0px" y="0px"
	 width="1200px" height="876px" viewBox="0 0 1200 876" enable-background="new 0 0 1200 876" xml:space="preserve">
<title>Logo</title>
<desc>Created with Sketch.</desc>
<g id="Shortlist-Brand-Resources" transform="translate(-120.000000, -372.000000)">
	<path id="Logo" fill="#2A2A2A" d="M1273.605,372c42.52,0,60.079,37.726,34.48,74.02l-546.717,775.71
		c-24.237,34.379-64.958,32.152-85.771-4.686l-97.219-171.96l-131.683,179.508c-24.926,33.976-65.443,30.489-84.974-7.36
		L127.71,763.979c-19.922-38.628,0.454-75.575,41.705-75.575h192.591c33.417,0,72.511,23.594,89.821,54.176l130.604,230.992
		l405.636-552.998c20.142-27.423,60.752-48.573,93.371-48.573H1273.605L1273.605,372z M1277.688,421.507
		c2.158-3.05,3.457-5.665,4.005-7.626c-1.8-0.685-4.521-1.151-8.085-1.151h-192.17c-20.923,0-50.509,15.392-63.408,32.979
		L603.495,1010.83l104.677,185.157c6.896,12.187,14.762,12.605,22.784,1.214L1277.688,421.507z M416.737,1199.442l140.565-191.616
		L419.255,763.652c-10.415-18.396-37.17-34.535-57.249-34.535H169.415c-12.26,0-14.292,3.704-8.351,15.189l233.999,453.237
		C401.396,1209.839,408.652,1210.477,416.737,1199.442z"/>
</g>
</svg>
