<?xml version="1.0" encoding="utf-8"?>
<!-- Generator: Adobe Illustrator 16.0.0, SVG Export Plug-In . SVG Version: 6.00 Build 0)  -->
<!DOCTYPE svg PUBLIC "-//W3C//DTD SVG 1.1//EN" "http://www.w3.org/Graphics/SVG/1.1/DTD/svg11.dtd">
<svg version="1.1" id="Layer_1" xmlns="http://www.w3.org/2000/svg" xmlns:xlink="http://www.w3.org/1999/xlink" x="0px" y="0px"
	 width="400px" height="400px" viewBox="0 0 400 400" enable-background="new 0 0 400 400" xml:space="preserve">
<title>Square</title>
<desc>Created with Sketch.</desc>
<rect id="field" fill="#2A2A2A" width="400" height="400"/>
<path id="logo" fill="#FFFFFF" d="M341.735,94c10.629,0,15.02,9.432,8.62,18.505l-136.68,193.927
	c-6.06,8.596-16.239,8.039-21.443-1.17l-24.304-42.99l-32.921,44.877c-6.231,8.494-16.36,7.622-21.243-1.841L55.261,191.995
	c-4.98-9.657,0.113-18.894,10.426-18.894h48.148c8.354,0,18.127,5.899,22.455,13.544l32.651,57.748L270.35,106.144
	C275.385,99.288,285.538,94,293.693,94H341.735z M342.755,106.377c0.54-0.763,0.864-1.417,1.001-1.907
	c-0.449-0.171-1.13-0.288-2.021-0.288h-48.042c-5.231,0-12.628,3.848-15.854,8.245l-103.633,141.28l26.169,46.29
	c1.724,3.046,3.69,3.151,5.696,0.304L342.755,106.377z M127.518,300.86l35.141-47.903l-34.512-61.044
	c-2.604-4.599-9.292-8.634-14.312-8.634H65.687c-3.065,0-3.573,0.926-2.087,3.797l58.5,113.309
	C123.683,303.46,125.497,303.619,127.518,300.86z"/>
</svg>
