<?xml version="1.0" encoding="utf-8"?>
<!-- Generator: Adobe Illustrator 16.0.0, SVG Export Plug-In . SVG Version: 6.00 Build 0)  -->
<!DOCTYPE svg PUBLIC "-//W3C//DTD SVG 1.1//EN" "http://www.w3.org/Graphics/SVG/1.1/DTD/svg11.dtd">
<svg version="1.1" id="Layer_1" xmlns="http://www.w3.org/2000/svg" xmlns:xlink="http://www.w3.org/1999/xlink" x="0px" y="0px"
	 width="1200px" height="168px" viewBox="0 0 1200 168" enable-background="new 0 0 1200 168" xml:space="preserve">
<title>Wordmark-White</title>
<desc>Created with Sketch.</desc>
<g id="Shortlist-Brand-Resources" transform="translate(-120.000000, -3400.000000)">
	<path id="Wordmark-White" fill="#FFFFFF" d="M1311.094,3400c8.162,0,11.533,7.235,6.619,14.195l-104.954,148.767
		c-4.653,6.593-12.471,6.166-16.466-0.898l-18.663-32.979l-25.279,34.426c-4.785,6.516-12.563,5.848-16.313-1.411l-44.924-86.926
		c-3.824-7.408,0.087-14.494,8.006-14.494h36.973c6.415,0,13.92,4.525,17.243,10.39l25.072,44.3l77.871-106.055
		c3.866-5.259,11.662-9.315,17.925-9.315H1311.094z M1311.877,3409.495c0.414-0.585,0.664-1.086,0.769-1.462
		c-0.345-0.132-0.867-0.221-1.552-0.221h-36.891c-4.018,0-9.697,2.952-12.174,6.325l-79.578,108.38l20.095,35.51
		c1.324,2.337,2.834,2.417,4.374,0.232L1311.877,3409.495z M1146.599,3558.688l26.984-36.748l-26.501-46.828
		c-2-3.528-7.136-6.623-10.99-6.623h-36.973c-2.354,0-2.743,0.71-1.603,2.913l44.921,86.922
		C1143.653,3560.682,1145.047,3560.804,1146.599,3558.688z M951.137,3440.114v-11.572h92.515v11.572h-39.374v104.153h-13.772
		v-104.153H951.137z M910.108,3480.23c15.88,0.928,26.249,11.11,26.249,23.917v14.966c0,14.661-12.963,25.463-27.87,25.463h-35.643
		c-15.231,0-27.381-10.184-27.381-24.689v-10.029h14.418v9.566c0,7.716,5.995,13.115,16.202,13.115h30.785
		c8.588,0,15.556-6.328,15.556-13.578v-14.813c0-6.324-4.866-11.727-12.965-12.189l-37.102-2.006
		c-16.69-0.928-26.735-11.727-26.735-24.072v-15.431c0-11.414,11.828-22.833,26.735-22.833h32.076
		c18.309,0,29.653,10.336,29.653,22.374v9.566h-13.933v-7.25c0-8.182-5.512-12.963-15.721-12.963h-30.458
		c-8.748,0-14.257,5.71-14.257,12.189v14.041c0,6.943,5.185,12.19,13.773,12.652L910.108,3480.23z M805.732,3544.266v-115.722h13.77
		v115.722H805.732z M720.794,3428.542v104.153h61.895v11.568h-75.664v-115.722H720.794z M592.924,3440.114v-11.572h92.514v11.572
		h-39.37v104.153h-13.771v-104.153H592.924z M554.487,3494.579c0,0,7.778,1.854,12.477,18.21l9.071,31.477h-15.229l-8.1-31.632
		c-2.27-8.638-8.75-15.276-18.471-15.276H497.78v46.908h-13.77v-115.725h56.383c22.845,0,34.023,11.106,34.023,28.702v11.261
		C574.417,3483.317,562.104,3493.809,554.487,3494.579z M541.85,3485.786c12.151,0,18.636-6.328,18.636-17.593v-10.646
		c0-11.261-4.701-17.434-20.092-17.434H497.78v45.673H541.85z M423.213,3427.614c18.636,0,34.189,13.578,34.189,31.632v54.313
		c0,19.443-14.422,30.704-34.189,30.704h-27.054c-19.765,0-34.189-11.261-34.189-30.704v-54.313
		c0-18.055,15.556-31.632,34.189-31.632H423.213z M443.629,3512.479v-53.081c0-11.572-8.748-19.902-20.899-19.902h-26.087
		c-12.149,0-20.9,8.331-20.9,19.902v53.081c0,12.963,9.724,20.061,22.683,20.061h22.521
		C433.908,3532.54,443.629,3525.442,443.629,3512.479z M321.43,3479.458v-50.917h13.773v115.725H321.43v-53.233h-71.128v53.233
		h-13.77v-115.725h13.77v50.917H321.43z M184.647,3480.23c15.877,0.928,26.25,11.11,26.25,23.917v14.966
		c0,14.661-12.963,25.463-27.871,25.463h-35.645c-15.229,0-27.381-10.184-27.381-24.689v-10.029h14.421v9.566
		c0,7.716,5.995,13.115,16.202,13.115h30.782c8.588,0,15.556-6.328,15.556-13.578v-14.813c0-6.324-4.863-11.727-12.962-12.189
		l-37.101-2.006c-16.688-0.928-26.732-11.727-26.732-24.072v-15.431c0-11.414,11.825-22.833,26.732-22.833h32.079
		c18.306,0,29.65,10.336,29.65,22.374v9.566h-13.932v-7.25c0-8.182-5.512-12.963-15.718-12.963h-30.461
		c-8.748,0-14.256,5.71-14.256,12.189v14.041c0,6.943,5.185,12.19,13.77,12.652L184.647,3480.23z"/>
</g>
</svg>
