<?xml version="1.0" encoding="utf-8"?>
<!-- Generator: Adobe Illustrator 16.0.0, SVG Export Plug-In . SVG Version: 6.00 Build 0)  -->
<!DOCTYPE svg PUBLIC "-//W3C//DTD SVG 1.1//EN" "http://www.w3.org/Graphics/SVG/1.1/DTD/svg11.dtd">
<svg version="1.1" id="Layer_1" xmlns="http://www.w3.org/2000/svg" xmlns:xlink="http://www.w3.org/1999/xlink" x="0px" y="0px"
	 width="1200px" height="168px" viewBox="0 0 1200 168" enable-background="new 0 0 1200 168" xml:space="preserve">
<title>Wordmark</title>
<desc>Created with Sketch.</desc>
<path id="Wordmark" fill="#2A2A2A" d="M1191.094,0c8.162,0,11.533,7.235,6.619,14.195l-104.954,148.767
	c-4.653,6.593-12.471,6.167-16.466-0.898l-18.663-32.979l-25.279,34.426c-4.785,6.517-12.563,5.848-16.313-1.411l-44.924-86.926
	c-3.824-7.408,0.087-14.494,8.006-14.494h36.973c6.415,0,13.92,4.525,17.243,10.39l25.072,44.3l77.871-106.055
	C1140.145,4.056,1147.94,0,1154.203,0H1191.094z M1191.877,9.495c0.414-0.585,0.664-1.086,0.769-1.462
	c-0.345-0.132-0.867-0.221-1.552-0.221h-36.891c-4.018,0-9.697,2.952-12.174,6.325l-79.578,108.38l20.095,35.51
	c1.324,2.337,2.834,2.417,4.374,0.232L1191.877,9.495z M1026.599,158.688l26.984-36.748l-26.501-46.828
	c-2-3.528-7.136-6.623-10.99-6.623h-36.973c-2.354,0-2.743,0.71-1.603,2.913l44.921,86.922
	C1023.653,160.682,1025.047,160.804,1026.599,158.688z M831.137,40.114V28.542h92.515v11.572h-39.374v104.153h-13.772V40.114
	H831.137z M790.108,80.23c15.88,0.928,26.249,11.11,26.249,23.917v14.966c0,14.661-12.963,25.463-27.87,25.463h-35.643
	c-15.231,0-27.381-10.184-27.381-24.689v-10.029h14.418v9.566c0,7.716,5.995,13.115,16.202,13.115h30.785
	c8.588,0,15.556-6.328,15.556-13.578v-14.813c0-6.324-4.866-11.727-12.965-12.189l-37.102-2.006
	c-16.69-0.928-26.735-11.727-26.735-24.072V50.448c0-11.414,11.828-22.833,26.735-22.833h32.076
	c18.309,0,29.653,10.336,29.653,22.374v9.566h-13.933v-7.25c0-8.181-5.512-12.963-15.721-12.963h-30.458
	c-8.748,0-14.257,5.71-14.257,12.189v14.041c0,6.943,5.185,12.19,13.773,12.652L790.108,80.23z M685.732,144.266V28.544h13.77
	v115.722H685.732z M600.794,28.542v104.153h61.895v11.568h-75.664V28.542H600.794z M472.924,40.114V28.542h92.514v11.572h-39.37
	v104.153h-13.771V40.114H472.924z M434.487,94.579c0,0,7.778,1.854,12.477,18.21l9.071,31.477h-15.229l-8.1-31.632
	c-2.27-8.638-8.75-15.276-18.471-15.276H377.78v46.908h-13.77V28.541h56.383c22.845,0,34.023,11.106,34.023,28.702v11.261
	C454.417,83.317,442.104,93.809,434.487,94.579z M421.85,85.785c12.151,0,18.636-6.327,18.636-17.592V57.547
	c0-11.261-4.701-17.434-20.092-17.434H377.78v45.672H421.85z M303.213,27.614c18.636,0,34.189,13.578,34.189,31.632v54.313
	c0,19.442-14.422,30.704-34.189,30.704h-27.054c-19.765,0-34.189-11.262-34.189-30.704V59.246c0-18.055,15.556-31.632,34.189-31.632
	H303.213z M323.629,112.479V59.398c0-11.572-8.748-19.902-20.899-19.902h-26.087c-12.149,0-20.9,8.331-20.9,19.902v53.081
	c0,12.963,9.724,20.061,22.683,20.061h22.521C313.908,132.54,323.629,125.442,323.629,112.479z M201.43,79.458V28.541h13.773
	v115.725H201.43V91.032h-71.128v53.233h-13.77V28.541h13.77v50.917H201.43z M64.647,80.23c15.877,0.928,26.25,11.11,26.25,23.917
	v14.966c0,14.661-12.963,25.463-27.871,25.463H27.381C12.152,144.575,0,134.392,0,119.886v-10.029h14.421v9.566
	c0,7.716,5.995,13.115,16.202,13.115h30.782c8.588,0,15.556-6.328,15.556-13.578v-14.813c0-6.324-4.863-11.727-12.962-12.189
	l-37.101-2.006C10.209,89.023,0.165,78.224,0.165,65.879V50.448c0-11.414,11.825-22.833,26.732-22.833h32.079
	c18.306,0,29.65,10.336,29.65,22.374v9.566H74.695v-7.25c0-8.181-5.512-12.963-15.718-12.963H28.516
	c-8.748,0-14.256,5.71-14.256,12.189v14.041c0,6.943,5.185,12.19,13.77,12.652L64.647,80.23z"/>
</svg>
